<?xml version="1.0" standalone="no"?>
<!DOCTYPE svg PUBLIC "-//W3C//DTD SVG 20010904//EN"
 "http://www.w3.org/TR/2001/REC-SVG-20010904/DTD/svg10.dtd">
<svg version="1.0" xmlns="http://www.w3.org/2000/svg"
 width="512.000000pt" height="512.000000pt" viewBox="0 0 512.000000 512.000000"
 preserveAspectRatio="xMidYMid meet">
<metadata>
Created by potrace 1.14, written by Peter Selinger 2001-2017
</metadata>
<g transform="translate(0.000000,512.000000) scale(0.100000,-0.100000)"
fill="#000000" stroke="none">
<path d="M2320 5110 c-491 -47 -981 -247 -1365 -557 -129 -104 -340 -321 -433
-445 -274 -365 -443 -782 -504 -1238 -16 -123 -16 -509 0 -625 65 -459 233
-873 501 -1230 92 -122 304 -341 426 -440 368 -299 822 -493 1305 -557 123
-16 509 -16 625 0 459 65 873 233 1230 501 122 92 341 304 440 426 299 368
493 822 557 1305 16 123 16 509 0 625 -65 459 -233 873 -501 1230 -92 122
-304 341 -426 440 -365 297 -826 494 -1295 555 -115 15 -443 21 -560 10z m10
-1240 l0 -219 -329 -3 c-315 -3 -331 -4 -357 -24 -70 -51 -68 -46 -75 -367 -5
-265 -7 -297 -27 -350 -42 -113 -84 -178 -176 -268 l-90 -88 95 -98 c106 -111
149 -182 179 -299 17 -67 20 -111 20 -334 0 -251 1 -258 23 -291 12 -18 38
-44 56 -56 34 -23 38 -23 357 -23 l324 0 0 -221 0 -220 -367 3 -368 3 -82 32
c-201 77 -333 221 -383 419 -17 67 -20 111 -20 331 0 211 -3 259 -16 286 -8
18 -115 129 -237 248 l-221 215 221 217 c121 120 228 233 237 251 13 28 16 76
16 288 0 221 3 265 20 332 43 169 156 308 311 385 131 65 167 69 552 70 l337
1 0 -220z m1195 205 c175 -37 344 -164 419 -315 57 -116 66 -179 66 -463 0
-224 2 -251 19 -285 11 -21 117 -134 237 -252 l218 -214 -221 -215 c-122 -119
-229 -230 -237 -248 -13 -27 -16 -75 -16 -286 0 -220 -3 -264 -20 -331 -50
-198 -193 -352 -392 -424 l-73 -26 -367 -4 -368 -3 0 220 0 221 324 0 c319 0
323 0 357 23 18 12 44 38 56 56 22 33 23 40 23 291 0 223 3 267 20 334 30 117
73 188 180 300 l95 98 -66 62 c-81 76 -129 135 -164 205 -55 111 -58 126 -64
438 -7 321 -6 316 -75 367 -26 20 -42 21 -357 24 l-329 3 0 219 0 220 333 0
c252 0 349 -4 402 -15z"/>
</g>
</svg>
